<svg xmlns="http://www.w3.org/2000/svg" viewBox="0 0 320 320"><path d="M297.06 130.97c7.26-21.79 4.76-45.66-6.85-65.48-17.46-30.4-52.56-46.04-86.84-38.68-15.25-17.18-37.16-26.95-60.13-26.81-35.04-.08-66.13 22.48-76.91 55.82-22.51 4.61-41.94 18.7-53.31 38.67-17.59 30.32-13.58 68.54 9.92 94.54-7.26 21.79-4.76 45.66 6.85 65.48 17.46 30.4 52.56 46.04 86.84 38.68 15.24 17.18 37.16 26.95 60.13 26.81 35.06.09 66.16-22.49 76.94-55.86 22.51-4.61 41.94-18.7 53.31-38.67 17.57-30.32 13.55-68.51-9.95-94.51zm-130.13 182.05c-14.03.02-27.62-4.89-38.39-13.88.49-.26 1.34-.73 1.89-1.07l63.72-36.8a10.36 10.36 0 0 0 5.24-9.07v-89.83l26.93 15.55a.96.96 0 0 1 .52.75v74.39c-.04 33.08-26.83 59.9-59.91 59.96zm-128.84-55.03c-7.03-12.14-9.56-26.37-7.15-40.18.47.28 1.3.79 1.89 1.13l63.72 36.8a10.375 10.375 0 0 0 10.48 0l77.79-44.9v31.1a.97.97 0 0 1-.38.83l-64.41 37.19c-28.69 16.52-65.33 6.7-81.94-21.97zm-16.77-139.09c7-12.16 18.05-21.46 31.21-26.29 0 .55-.03 1.52-.03 2.2v73.61a10.33 10.33 0 0 0 5.23 9.06l77.79 44.9-26.93 15.55a.976.976 0 0 1-.93.08L70.3 199.24c-28.6-16.64-38.44-53.09-21.98-81.34zm221.26 51.49-77.79-44.9 26.93-15.54a.975.975 0 0 1 .93-.08l64.42 37.19c28.68 16.57 38.51 53.05 21.94 81.34-7.01 12.14-18.05 21.44-31.2 26.28v-75.81a10.33 10.33 0 0 0-5.23-9.48zm26.8-40.34c-.47-.29-1.3-.79-1.89-1.13l-63.72-36.8a10.375 10.375 0 0 0-10.48 0l-77.79 44.9v-31.1a.97.97 0 0 1 .38-.83l64.41-37.16c28.69-16.55 65.37-6.7 81.96 22 6.99 12.12 9.52 26.31 7.13 40.12zm-168.51 55.43-26.94-15.55a.96.96 0 0 1-.52-.75v-74.39c.02-33.12 26.89-59.96 60.01-59.94 14.01 0 27.57 4.92 38.34 13.88-.49.26-1.33.73-1.89 1.07l-63.72 36.8a10.36 10.36 0 0 0-5.24 9.07l-.04 89.81zm14.63-31.54 34.65-20.01 34.65 19.98v39.96l-34.65 20-34.65-19.97v-39.96z" fill="white"/></svg>